<?xml version="1.0" standalone="no"?>
<!DOCTYPE svg PUBLIC "-//W3C//DTD SVG 20010904//EN"
 "http://www.w3.org/TR/2001/REC-SVG-20010904/DTD/svg10.dtd">
<svg version="1.0" xmlns="http://www.w3.org/2000/svg"
 width="169.000000pt" height="153.000000pt" viewBox="0 0 169.000000 153.000000"
 preserveAspectRatio="xMidYMid meet">

<g transform="translate(0.000000,153.000000) scale(0.100000,-0.100000)"
fill="#000000" stroke="none">
<path d="M678 1264 c-142 -34 -257 -126 -324 -260 -209 -415 241 -857 662
-650 205 102 315 335 259 551 -69 262 -335 423 -597 359z m214 -25 c163 -35
312 -175 353 -334 85 -328 -213 -635 -547 -564 -89 19 -158 58 -229 129 -77
76 -114 146 -131 248 -24 143 20 279 126 387 117 119 271 167 428 134z"/>
<path d="M617 840 c-87 -111 -155 -205 -151 -211 12 -19 51 5 185 117 76 63
140 114 144 114 4 0 76 -56 160 -125 85 -69 159 -125 164 -125 6 0 11 10 10
23 0 29 -308 401 -335 405 -16 2 -56 -42 -177 -198z m239 98 c158 -193 196
-242 178 -227 -10 8 -67 54 -126 102 -59 48 -109 87 -113 87 -3 0 -58 -43
-122 -97 -64 -53 -114 -92 -112 -86 6 15 223 292 230 293 3 0 32 -33 65 -72z"/>
</g>
</svg>
